<svg data-noselect="" viewBox="0 0 800 600" width="1600" height="1200" preserveAspectRatio="none" version="1.1" xmlns="http://www.w3.org/2000/svg" style="background: rgb(27, 109, 193);"><defs></defs> <g id="shape_4QDzkpwC4C" transform="translate(233.31702183582,196) rotate(0,84.182978164179,86.072296394356) scale(1,1)" filter="" style="cursor: move; opacity: 1;"><g><rect fill="rgba(0,0,0,0)" width="188.36595632836" height="192.14459278871" x="-10" y="-10"></rect><svg version="1.1" id="图层_1" xmlns="http://www.w3.org/2000/svg" xmlns:xlink="http://www.w3.org/1999/xlink" x="0px" y="0px" width="168.36595632836" height="172.14459278871" viewBox="12.890007019042969 11.150016784667969 175.1099853515625 179.03997802734375" style="enable-background:new 0 0 200 200;" xml:space="preserve" preserveAspectRatio="none" data-parent="shape_4QDzkpwC4C">
<style type="text/css">
	.st0{fill:#001500;}
</style>
<g>
	<circle class="" cx="55.05" cy="109.26" r="5.28" fill="#ffffff"></circle>
	<circle class="" cx="61.28" cy="49.61" r="7" fill="#ffffff"></circle>
	<circle class="" cx="167.06" cy="42.61" r="9.61" fill="#ffffff"></circle>
	<g>
		<path class="" d="M102.41,53.36c16.39,0,30.85,8.38,39.34,21.07h1.55c-8.66-13.45-23.75-22.38-40.9-22.38
			c-26.81,0-48.62,21.81-48.62,48.62c0,16.31,8.09,30.76,20.45,39.59v-1.64c-11.6-8.63-19.14-22.42-19.14-37.95
			C55.1,74.58,76.32,53.36,102.41,53.36z" fill="#ffffff"></path>
		<path class="" d="M153.15,169.55c-14.21,10.5-31.76,16.71-50.74,16.71c-47.19,0-85.59-38.4-85.59-85.59
			c0-47.19,38.4-85.59,85.59-85.59c38.04,0,70.37,24.95,81.47,59.35H188c-11.24-36.6-45.36-63.28-85.59-63.28
			c-49.36,0-89.52,40.16-89.52,89.52s40.16,89.52,89.52,89.52c21.69,0,41.6-7.76,57.1-20.64H153.15z" fill="#ffffff"></path>
		<path class="" d="M160.06,74.43h2.86c-10.17-23.35-33.46-39.73-60.51-39.73c-36.37,0-65.96,29.59-65.96,65.96
			c0,26.3,15.48,49.05,37.8,59.63v-2.92c-20.83-10.39-35.18-31.9-35.18-56.72c0-34.93,28.42-63.35,63.35-63.35
			C127.98,37.32,150.07,52.56,160.06,74.43z" fill="#ffffff"></path>
	</g>
</g>
</svg></g> <!----></g><g id="shape_jbgP63tVon" transform="translate(291,249.39072520967) rotate(0,128.5,41.905151367188) scale(1,1)" filter="" style="cursor: move; opacity: 1;"><g><svg xmlns="http://www.w3.org/2000/svg" version="1.1" xmlns:xlink="http://www.w3.org/1999/xlink" overflow="hidden" style="top:0; left: 0" width="410.68798828125" height="83.810302734375" viewBox="0 0 405.68798828125 83.810302734375" preserveAspectRatio="none" data-parent="shape_jbgP63tVon"><rect fill="rgba(0,0,0,0)" width="410.68798828125" height="83.810302734375"></rect> <rect opacity="0"></rect><g transform="translate(0 0)" data-width="400.68798828125"><path fill="#FFFFFF" d="M45.96-26.73L45.96 2.09L3.85 2.09L3.85-43.34L45.99-43.34L45.99-38.33L17.13-38.33L17.13-2.92L32.67-2.92L32.67-21.72L20.73-21.72L20.73-26.73L45.96-26.73Z" transform="translate(5 61.73876953125)" data-glyph-w="48.97265625"></path><path fill="#FFFFFF" d="M3.85-43.34L46.02-43.34L46.02 2.03L17.13 2.03L17.13 2.09L3.85 2.03L3.85-43.34ZM32.73-3.41L32.73-37.90L17.13-37.90L17.13-3.41L32.73-3.41Z" transform="translate(53.97265625 61.73876953125)" data-glyph-w="49.18798828125"></path><path fill="#FFFFFF" d="M17.10-43.34L17.10-38.36L20.73-43.34L46.02-43.34L46.02 2.03L20.33 2.03L17.13-3.17L17.13 2.09L3.85 2.03L3.85-43.34L17.10-43.34ZM32.73-37.90L17.10-37.90L17.13-3.41L32.73-3.41L32.73-37.90Z" transform="translate(103.16064453125 61.73876953125)" data-glyph-w="49.18798828125"></path><path fill="#FFFFFF" d="M33.87 2.00L15.17-33.62L15.17 2.18L3.60 2.18L3.60-43.31L18.70-43.31L36.08-9.60L36.08-43.31L47.65-43.31L47.65 2.00L33.87 2.00Z" transform="translate(152.3486328125 61.73876953125)" data-glyph-w="51.64892578125"></path><path fill="#FFFFFF" d="M15.87-2.46L32.64-2.46L32.64-22.12L3.88-22.12L3.88-43.25L45.93-43.25L45.93-33.01L33.93-33.01L33.93-38.58L17.17-38.58L17.17-26.70L45.93-26.70L45.93 2.09L3.88 2.09L3.88-16.24L15.87-16.24L15.87-2.46Z" transform="translate(203.99755859375 61.73876953125)" data-glyph-w="49.68017578125"></path><path fill="#FFFFFF" d="M3.81-43.25L17.53-43.25L17.53-3.38L45.90-3.38L45.90 2.06L3.81 2.06L3.81-43.25Z" transform="translate(253.677734375 61.73876953125)" data-glyph-w="48.849609375"></path><path fill="#FFFFFF" d="M3.85-43.34L46.02-43.34L46.02 2.03L17.13 2.03L17.13 2.09L3.85 2.03L3.85-43.34ZM32.73-3.41L32.73-37.90L17.13-37.90L17.13-3.41L32.73-3.41Z" transform="translate(302.52734375 61.73876953125)" data-glyph-w="49.18798828125"></path><path fill="#FFFFFF" d="M45.96-26.73L45.96 2.09L3.85 2.09L3.85-43.34L45.99-43.34L45.99-38.33L17.13-38.33L17.13-2.92L32.67-2.92L32.67-21.72L20.73-21.72L20.73-26.73L45.96-26.73Z" transform="translate(351.71533203125 61.73876953125)" data-glyph-w="48.97265625"></path></g></svg></g> <!----></g><g id="shape_wCoO9V3YLV" transform="translate(293,322.39072520967) rotate(0,88.843017578125,13.837646484375) scale(1,1)" filter="" style="cursor: move; opacity: 1;"><g><svg xmlns="http://www.w3.org/2000/svg" version="1.1" xmlns:xlink="http://www.w3.org/1999/xlink" overflow="hidden" style="top:0; left: 0" width="179.54443359375" height="27.67529296875" viewBox="0 0 174.54443359375 27.67529296875" preserveAspectRatio="none" data-parent="shape_wCoO9V3YLV"><rect fill="rgba(0,0,0,0)" width="179.54443359375" height="27.67529296875"></rect> <rect opacity="0"></rect><g transform="translate(0 0)" data-width="169.54443359375"><path fill="#FFFFFF" d="M0.94-4.83L0.94-4.83L2.82-4.99Q2.95-3.87 3.44-3.14Q3.93-2.42 4.95-1.97Q5.98-1.53 7.26-1.53L7.26-1.53Q8.40-1.53 9.27-1.87Q10.14-2.20 10.57-2.79Q10.99-3.38 10.99-4.08L10.99-4.08Q10.99-4.79 10.58-5.32Q10.17-5.84 9.23-6.20L9.23-6.20Q8.62-6.44 6.55-6.94Q4.48-7.43 3.65-7.88L3.65-7.88Q2.57-8.44 2.05-9.27Q1.52-10.11 1.52-11.15L1.52-11.15Q1.52-12.28 2.16-13.27Q2.81-14.26 4.05-14.78Q5.29-15.29 6.81-15.29L6.81-15.29Q8.48-15.29 9.76-14.75Q11.03-14.21 11.72-13.17Q12.41-12.12 12.46-10.80L12.46-10.80L10.55-10.65Q10.40-12.08 9.51-12.81Q8.62-13.54 6.89-13.54L6.89-13.54Q5.09-13.54 4.26-12.87Q3.44-12.21 3.44-11.28L3.44-11.28Q3.44-10.47 4.02-9.95L4.02-9.95Q4.59-9.42 7.02-8.87Q9.44-8.33 10.35-7.92L10.35-7.92Q11.66-7.31 12.28-6.38Q12.91-5.46 12.91-4.25L12.91-4.25Q12.91-3.05 12.22-1.98Q11.54-0.92 10.25-0.33Q8.96 0.26 7.35 0.26L7.35 0.26Q5.31 0.26 3.93-0.34Q2.55-0.93 1.77-2.13Q0.98-3.32 0.94-4.83Z" transform="translate(5 19.0107421875)" data-glyph-w="14.0068359375"></path><path fill="#FFFFFF" d="M3.67 0L1.68 0L1.68-15.03L3.67-15.03L3.67-8.86L11.48-8.86L11.48-15.03L13.47-15.03L13.47 0L11.48 0L11.48-7.09L3.67-7.09L3.67 0Z" transform="translate(19.0068359375 19.0107421875)" data-glyph-w="15.16552734375"></path><path fill="#FFFFFF" d="M12.88 0L1.66 0L1.66-15.03L12.53-15.03L12.53-13.26L3.65-13.26L3.65-8.65L11.97-8.65L11.97-6.89L3.65-6.89L3.65-1.77L12.88-1.77L12.88 0Z" transform="translate(34.17236328125 19.0107421875)" data-glyph-w="14.0068359375"></path><path fill="#FFFFFF" d="M10.93 0L1.54 0L1.54-15.03L3.53-15.03L3.53-1.77L10.93-1.77L10.93 0Z" transform="translate(48.17919921875 19.0107421875)" data-glyph-w="11.67919921875"></path><path fill="#FFFFFF" d="M10.93 0L1.54 0L1.54-15.03L3.53-15.03L3.53-1.77L10.93-1.77L10.93 0Z" transform="translate(59.8583984375 19.0107421875)" data-glyph-w="11.67919921875"></path><path fill="#FFFFFF" d="M3.61 0L1.62 0L1.62-15.03L7.29-15.03Q8.79-15.03 9.58-14.89L9.58-14.89Q10.68-14.70 11.43-14.19Q12.18-13.67 12.64-12.74Q13.09-11.80 13.09-10.68L13.09-10.68Q13.09-8.77 11.87-7.44Q10.65-6.11 7.46-6.11L7.46-6.11L3.61-6.11L3.61 0ZM3.61-13.26L3.61-7.89L7.50-7.89Q9.42-7.89 10.23-8.60Q11.04-9.32 11.04-10.62L11.04-10.62Q11.04-11.57 10.57-12.24Q10.09-12.91 9.31-13.13L9.31-13.13Q8.81-13.26 7.45-13.26L7.45-13.26L3.61-13.26Z" transform="translate(71.53759765625 19.0107421875)" data-glyph-w="14.0068359375"></path><path fill="#FFFFFF" d="M11.48-6.36L11.48-15.03L13.47-15.03L13.47-6.35Q13.47-4.08 12.96-2.75Q12.45-1.42 11.11-0.58Q9.77 0.26 7.60 0.26L7.60 0.26Q5.49 0.26 4.14-0.47Q2.80-1.20 2.23-2.58Q1.65-3.96 1.65-6.35L1.65-6.35L1.65-15.03L3.64-15.03L3.64-6.36Q3.64-4.40 4.00-3.47Q4.37-2.54 5.26-2.04Q6.14-1.54 7.42-1.54L7.42-1.54Q9.62-1.54 10.55-2.53Q11.48-3.53 11.48-6.36L11.48-6.36Z" transform="translate(85.54443359375 19.0107421875)" data-glyph-w="15.16552734375"></path><path fill="#FFFFFF" d="M7.27 0L1.54 0L1.54-15.03L7.18-15.03Q8.90-15.03 9.94-14.58Q10.98-14.12 11.57-13.17Q12.16-12.22 12.16-11.19L12.16-11.19Q12.16-10.22 11.64-9.37Q11.12-8.52 10.06-8.00L10.06-8.00Q11.42-7.60 12.16-6.63Q12.89-5.67 12.89-4.36L12.89-4.36Q12.89-3.30 12.44-2.39Q12.00-1.49 11.34-0.99Q10.68-0.50 9.70-0.25Q8.71 0 7.27 0L7.27 0ZM3.53-13.26L3.53-8.72L6.78-8.72Q8.10-8.72 8.67-8.89L8.67-8.89Q9.43-9.12 9.82-9.64Q10.20-10.16 10.20-10.95L10.20-10.95Q10.20-11.70 9.84-12.27Q9.48-12.84 8.82-13.05Q8.15-13.26 6.53-13.26L6.53-13.26L3.53-13.26ZM3.53-6.94L3.53-1.77L7.27-1.77Q8.23-1.77 8.62-1.85L8.62-1.85Q9.31-1.97 9.77-2.26Q10.23-2.54 10.53-3.09Q10.83-3.64 10.83-4.36L10.83-4.36Q10.83-5.20 10.40-5.82Q9.97-6.44 9.20-6.69Q8.44-6.94 7.00-6.94L7.00-6.94L3.53-6.94Z" transform="translate(100.7099609375 19.0107421875)" data-glyph-w="14.0068359375"></path><path fill="#FFFFFF" d="M4.01 0L1.91 0L1.91-2.10L4.01-2.10L4.01 0Z" transform="translate(114.716796875 19.0107421875)" data-glyph-w="5.83447265625"></path><path fill="#FFFFFF" d="M12.35-5.27L12.35-5.27L14.33-4.77Q13.71-2.32 12.08-1.03Q10.46 0.26 8.11 0.26L8.11 0.26Q5.68 0.26 4.16-0.73Q2.64-1.72 1.84-3.60Q1.05-5.48 1.05-7.63L1.05-7.63Q1.05-9.98 1.94-11.73Q2.84-13.47 4.50-14.38Q6.15-15.29 8.14-15.29L8.14-15.29Q10.40-15.29 11.94-14.14Q13.47-12.99 14.08-10.91L14.08-10.91L12.12-10.45Q11.60-12.09 10.60-12.84Q9.61-13.59 8.10-13.59L8.10-13.59Q6.37-13.59 5.20-12.76Q4.04-11.93 3.57-10.53Q3.10-9.13 3.10-7.64L3.10-7.64Q3.10-5.72 3.66-4.29Q4.21-2.86 5.39-2.15Q6.57-1.45 7.95-1.45L7.95-1.45Q9.62-1.45 10.78-2.41Q11.94-3.37 12.35-5.27Z" transform="translate(120.55126953125 19.0107421875)" data-glyph-w="15.16552734375"></path><path fill="#FFFFFF" d="M1.02-7.32L1.02-7.32Q1.02-11.06 3.02-13.18Q5.03-15.30 8.21-15.30L8.21-15.30Q10.29-15.30 11.97-14.30Q13.64-13.31 14.51-11.53Q15.39-9.75 15.39-7.50L15.39-7.50Q15.39-5.21 14.47-3.40Q13.55-1.60 11.85-0.67Q10.16 0.26 8.20 0.26L8.20 0.26Q6.08 0.26 4.41-0.77Q2.74-1.79 1.88-3.57Q1.02-5.34 1.02-7.32ZM3.07-7.29L3.07-7.29Q3.07-4.57 4.53-3.01Q5.99-1.45 8.19-1.45L8.19-1.45Q10.44-1.45 11.89-3.02Q13.34-4.60 13.34-7.51L13.34-7.51Q13.34-9.34 12.72-10.71Q12.10-12.08 10.91-12.83Q9.71-13.59 8.22-13.59L8.22-13.59Q6.11-13.59 4.59-12.14Q3.07-10.68 3.07-7.29Z" transform="translate(135.716796875 19.0107421875)" data-glyph-w="16.33447265625"></path><path fill="#FFFFFF" d="M3.48 0L1.56 0L1.56-15.03L4.55-15.03L8.11-4.39Q8.60-2.90 8.83-2.16L8.83-2.16Q9.08-2.98 9.63-4.57L9.63-4.57L13.23-15.03L15.90-15.03L15.90 0L13.99 0L13.99-12.58L9.62 0L7.82 0L3.48-12.80L3.48 0Z" transform="translate(152.05126953125 19.0107421875)" data-glyph-w="17.4931640625"></path></g></svg></g> <!----></g>  <!----></svg>